<svg height="511pt" viewBox="-25 0 511 511.99872" width="511pt" xmlns="http://www.w3.org/2000/svg"><path d="m45.613281 480.617188c-20.433593-12.222657-29.949219-32.878907-29.949219-65.011719 0-43.488281 18.21875-102.894531 47.546876-155.035157 32.339843-57.5 73.347656-99.585937 115.730468-118.886718h104.941406c23.039063 10.492187 45.582032 27.597656 67.046876 50.917968 1.492187 1.625 3.535156 2.449219 5.582031 2.449219 1.832031 0 3.675781-.664062 5.132812-2.003906 3.082031-2.835937 3.277344-7.632813.441407-10.714844-18.382813-19.976562-37.636719-35.714843-57.429688-47.019531 8.574219-6.160156 14.171875-16.210938 14.171875-27.550781 0-9.074219-3.53125-17.59375-9.929687-23.976563-3.777344-3.785156-8.296876-6.558594-13.234376-8.199218 8.5625-21.019532 15.519532-46.96875 2.277344-62.957032-11.078125-13.371094-32.855468-16.09375-66.539062-8.3125-33.6875-7.785156-55.460938-5.058594-66.539063 8.316406-13.246093 15.988282-6.28125 41.945313 2.28125 62.96875-13.449219 4.503907-23.171875 17.214844-23.171875 32.160157 0 9.0625 3.53125 17.578125 9.9375 23.984375 1.320313 1.320312 2.734375 2.511718 4.21875 3.582031-39.996094 22.890625-77.875 64.003906-108.136718 117.808594-30.992188 55.097656-49.492188 115.835937-49.492188 162.46875 0 37.476562 12.207031 63 37.324219 78.023437 1.222656.730469 2.5625 1.078125 3.886719 1.078125 2.582031 0 5.09375-1.316406 6.515624-3.691406 2.148438-3.59375.980469-8.25-2.613281-10.398437zm130.925781-458.308594c7.015626-8.472656 25.382813-9.449219 53.101563-2.828125 1.160156.277343 2.367187.277343 3.523437 0 27.71875-6.621094 46.082032-5.644531 53.101563 2.824219 6.867187 8.292968 4.734375 25.621093-6.316406 51.539062h-97.09375c-11.050781-25.914062-13.183594-43.246094-6.316407-51.535156zm1.328126 66.703125h.035156c.023437 0 .050781-.003907.074218-.003907h106.742188c.027344.003907.058594 0 .085938 0h.105468c5.015625 0 9.722656 1.949219 13.265625 5.5 3.539063 3.53125 5.488281 8.238282 5.488281 13.253907 0 9.6875-7.386718 17.683593-16.824218 18.65625-1.761719-.613281-109.101563-.601563-110.847656.003906-4.292969-.429687-8.269532-2.308594-11.359376-5.398437-3.542968-3.542969-5.496093-8.25-5.496093-13.261719 0-10.328125 8.398437-18.734375 18.730469-18.75zm0 0"/><path d="m379.5625 202.96875c-2.578125-3.300781-7.347656-3.882812-10.644531-1.304688-3.300781 2.578126-3.882813 7.34375-1.304688 10.644532 46.828125 59.9375 79.535157 143.535156 79.535157 203.296875 0 25.585937-6.164063 44.070312-18.84375 56.511719-27.027344 26.519531-84.085938 25.441406-150.15625 24.191406-15.089844-.285156-30.691407-.578125-46.742188-.578125-16.054688 0-31.65625.292969-46.746094.578125-44.921875.851562-83.714844 1.585937-113.226562-5.628906-4.070313-.992188-8.171875 1.496093-9.164063 5.5625-.996093 4.070312 1.496094 8.171874 5.5625 9.167968 21.699219 5.304688 47.351563 6.589844 76.292969 6.589844 12.964844 0 26.59375-.257812 40.824219-.527344 15.019531-.285156 30.546875-.578125 46.457031-.578125s31.441406.292969 46.457031.578125c69.484375 1.316406 129.492188 2.449219 161.0625-28.53125 15.738281-15.445312 23.386719-37.46875 23.386719-67.335937 0-62.835938-34.027344-150.277344-82.75-212.636719zm0 0"/><path d="m233.953125 418.402344c4.25 0 7.707031-3.457032 7.707031-7.710938v-11.738281c10.773438-1.78125 19.671875-6.277344 25.742188-13.015625 6.566406-7.285156 9.894531-16.996094 9.894531-28.859375 0-27.101563-18.378906-36.292969-35.636719-42.761719v-41.558594c7.769532.816407 12.773438 3.3125 16.4375 5.136719 2.519532 1.257813 4.507813 2.25 6.433594 2.25 6.058594 0 9.097656-7.53125 9.097656-11.75 0-4.367187-3.773437-8.101562-10.917968-10.796875-5.632813-2.128906-13.300782-3.5625-21.050782-3.941406v-10.132812c0-4.25-3.457031-7.707032-7.707031-7.707032-4.253906 0-7.710937 3.457032-7.710937 7.707032v10.6875c-10.425782 1.371093-19.25 4.980468-25.535157 10.4375-7.648437 6.640624-11.527343 15.859374-11.527343 27.394531 0 11.40625 3.882812 20.195312 11.867187 26.871093 6.882813 5.757813 15.84375 9.238282 25.195313 12.582032v48.105468c-11.828126-1.402343-18.429688-7.011718-23.25-11.113281-3.027344-2.574219-5.417969-4.605469-7.980469-4.605469-5.027344 0-9.503907 6.566407-9.503907 11.746094 0 5.035156 4.222657 10.792969 11.292969 15.40625 7.910157 5.164063 18.363281 8.257813 29.441407 8.71875v10.941406c0 4.25 3.457031 7.707032 7.710937 7.707032zm-24.136719-128.398438c0-8.6875 5.679688-14.390625 16.425782-16.5v35.164063c-10.144532-4.105469-16.425782-8.679688-16.425782-18.664063zm31.84375 88.707032v-40.796876c7.445313 3.601563 15 8.988282 15 21.40625 0 9.960938-5.1875 16.664063-15 19.390626zm0 0"/></svg>